<?xml version="1.0" encoding="UTF-8"?>
<!DOCTYPE svg PUBLIC "-//W3C//DTD SVG 1.1//EN" "http://www.w3.org/Graphics/SVG/1.1/DTD/svg11.dtd">
<svg xmlns="http://www.w3.org/2000/svg" version="1.1" width="2560px" height="2560px" style="shape-rendering:geometricPrecision; text-rendering:geometricPrecision; image-rendering:optimizeQuality; fill-rule:evenodd; clip-rule:evenodd" xmlns:xlink="http://www.w3.org/1999/xlink">
<g><path style="opacity:1" fill="transparent" d="M -0.5,-0.5 C 852.833,-0.5 1706.17,-0.5 2559.5,-0.5C 2559.5,852.833 2559.5,1706.17 2559.5,2559.5C 1706.17,2559.5 852.833,2559.5 -0.5,2559.5C -0.5,1706.17 -0.5,852.833 -0.5,-0.5 Z"/></g>
<g><path style="opacity:1" fill="#fefefe" d="M 1386.5,1310.5 C 1392.3,1311.68 1398.3,1312.35 1404.5,1312.5C 1405.83,1312.5 1407.17,1312.5 1408.5,1312.5C 1411.33,1313.34 1414.33,1314.01 1417.5,1314.5C 1418.42,1314.46 1419.08,1314.12 1419.5,1313.5C 1437.06,1269.8 1448.06,1224.47 1452.5,1177.5C 1302.17,1177.5 1151.83,1177.5 1001.5,1177.5C 1001.5,1137.5 1001.5,1097.5 1001.5,1057.5C 1204.5,1057.5 1407.5,1057.5 1610.5,1057.5C 1610.5,1095.5 1610.5,1133.5 1610.5,1171.5C 1602.99,1246.03 1582.32,1316.69 1548.5,1383.5C 1584.02,1434.66 1594.19,1490.66 1579,1551.5C 1562.88,1610.1 1526.72,1650.43 1470.5,1672.5C 1468.03,1672.75 1466.03,1673.75 1464.5,1675.5C 1453.68,1678.37 1443.01,1681.54 1432.5,1685C 1485.98,1774.14 1539.32,1863.31 1592.5,1952.5C 1559.34,1953.5 1526,1953.83 1492.5,1953.5C 1441.99,1865.8 1390.99,1778.47 1339.5,1691.5C 1305.67,1690.5 1271.67,1690.17 1237.5,1690.5C 1237.5,1778.5 1237.5,1866.5 1237.5,1954.5C 1209.5,1954.5 1181.5,1954.5 1153.5,1954.5C 1153.5,1859.83 1153.5,1765.17 1153.5,1670.5C 1041.05,1688.46 932.046,1676.29 826.5,1634C 692.926,1575.09 595.76,1479.26 535,1346.5C 493.75,1246.42 478.416,1142.42 489,1034.5C 503.779,887.445 564.946,763.945 672.5,664C 790.031,563.151 926.697,516.151 1082.5,523C 1220.05,527.988 1340.38,575.322 1443.5,665C 1502.52,721.025 1546.86,787.025 1576.5,863C 1517.5,863.667 1458.5,863.667 1399.5,863C 1343.76,751.633 1254.42,684.633 1131.5,662C 1017.58,642.494 912.243,663.828 815.5,726C 762.628,762.865 721.128,809.698 691,866.5C 659.285,928.691 641.618,994.691 638,1064.5C 633.352,1139.6 643.352,1212.6 668,1283.5C 717.919,1411.09 808.752,1493.59 940.5,1531C 988.158,1542.57 1036.49,1546.9 1085.5,1544C 1108.28,1542.01 1130.94,1539.18 1153.5,1535.5C 1153.5,1460.5 1153.5,1385.5 1153.5,1310.5C 1231.17,1310.5 1308.83,1310.5 1386.5,1310.5 Z"/></g>
<g><path style="opacity:1" fill="fefefe" d="M 1777.5,1024.5 C 1880.17,1023.83 1982.83,1023.17 2085.5,1022.5C 2085.5,983.167 2085.5,943.833 2085.5,904.5C 1830.17,904.5 1574.83,904.5 1319.5,904.5C 1319.5,944.167 1319.5,983.833 1319.5,1023.5C 1318.5,983.67 1318.17,943.67 1318.5,903.5C 1574.5,903.5 1830.5,903.5 2086.5,903.5C 2086.5,943.833 2086.5,984.167 2086.5,1024.5C 1983.5,1024.5 1880.5,1024.5 1777.5,1024.5 Z"/></g>
<g><path style="opacity:1" fill="#fefefe" d="M 2085.5,1022.5 C 1982.16,1021.84 1879.16,1022.5 1776.5,1024.5C 1776.5,1361.5 1776.5,1698.5 1776.5,2035.5C 1727.83,2035.5 1679.17,2035.5 1630.5,2035.5C 1630.83,1698 1630.5,1360.67 1629.5,1023.5C 1526.17,1023.5 1422.83,1023.5 1319.5,1023.5C 1319.5,983.833 1319.5,944.167 1319.5,904.5C 1574.83,904.5 1830.17,904.5 2085.5,904.5C 2085.5,943.833 2085.5,983.167 2085.5,1022.5 Z"/></g>
<g><path style="opacity:1" fill="#fefefe" d="M 2085.5,1022.5 C 1982.83,1023.17 1880.17,1023.83 1777.5,1024.5C 1777.17,1024.5 1776.83,1024.5 1776.5,1024.5C 1879.16,1022.5 1982.16,1021.84 2085.5,1022.5 Z"/></g>
<g><path style="opacity:1" fill="#fefefe" d="M 1319.5,1023.5 C 1422.83,1023.5 1526.17,1023.5 1629.5,1023.5C 1629.5,1361.17 1629.5,1698.83 1629.5,2036.5C 1678.83,2036.5 1728.17,2036.5 1777.5,2036.5C 1728,2037.5 1678.34,2037.83 1628.5,2037.5C 1628.5,1699.83 1628.5,1362.17 1628.5,1024.5C 1525.33,1024.83 1422.33,1024.5 1319.5,1023.5 Z"/></g>
<g><path style="opacity:1" fill="#fefefe" d="M 1629.5,1023.5 C 1630.5,1360.67 1630.83,1698 1630.5,2035.5C 1679.17,2035.5 1727.83,2035.5 1776.5,2035.5C 1776.5,1698.5 1776.5,1361.5 1776.5,1024.5C 1776.83,1024.5 1777.17,1024.5 1777.5,1024.5C 1777.5,1361.83 1777.5,1699.17 1777.5,2036.5C 1728.17,2036.5 1678.83,2036.5 1629.5,2036.5C 1629.5,1698.83 1629.5,1361.17 1629.5,1023.5 Z"/></g>
<g><path style="opacity:1" fill="#fefefe" d="M 1610.5,1171.5 C 1610.5,1133.5 1610.5,1095.5 1610.5,1057.5C 1407.5,1057.5 1204.5,1057.5 1001.5,1057.5C 1001.5,1097.5 1001.5,1137.5 1001.5,1177.5C 1000.5,1137.34 1000.17,1097 1000.5,1056.5C 1204.17,1056.5 1407.83,1056.5 1611.5,1056.5C 1611.83,1095 1611.5,1133.34 1610.5,1171.5 Z"/></g>
<g><path style="opacity:1" fill="#fefefe" d="M 1386.5,1310.5 C 1391.84,1310.33 1397.18,1310.5 1402.5,1311C 1403.42,1311.28 1404.08,1311.78 1404.5,1312.5C 1398.3,1312.35 1392.3,1311.68 1386.5,1310.5 Z"/></g>
<g><path style="opacity:1" fill="#fefefe" d="M 1408.5,1312.5 C 1412.21,1312.42 1415.88,1312.76 1419.5,1313.5C 1419.08,1314.12 1418.42,1314.46 1417.5,1314.5C 1414.33,1314.01 1411.33,1313.34 1408.5,1312.5 Z"/></g>
<g><path style="opacity:1" fill="#fefefe" d="M 1238.5,1379.5 C 1238.17,1421.67 1238.5,1463.67 1239.5,1505.5C 1239.44,1506.04 1239.11,1506.38 1238.5,1506.5C 1237.17,1464 1237.17,1421.67 1238.5,1379.5 Z"/></g>
<g><path style="opacity:1" fill="#fefefe" d="M 1238.5,1379.5 C 1286.84,1379.17 1335.17,1379.5 1383.5,1380.5C 1346.58,1435.1 1298.58,1476.77 1239.5,1505.5C 1238.5,1463.67 1238.17,1421.67 1238.5,1379.5 Z"/></g>
<g><path style="opacity:1" fill="#fefefe" d="M 1381.5,1622.5 C 1355.99,1622.83 1330.66,1622.5 1305.5,1621.5C 1380.1,1584.09 1443.27,1532.42 1495,1466.5C 1503.02,1503.04 1498.02,1537.71 1480,1570.5C 1461.04,1597.42 1435.21,1613.92 1402.5,1620C 1395.46,1620.6 1388.46,1621.43 1381.5,1622.5 Z"/></g>
<g><path style="opacity:1" fill="#fefefe" d="M 1305.5,1621.5 C 1330.66,1622.5 1355.99,1622.83 1381.5,1622.5C 1376.02,1623.49 1370.36,1623.82 1364.5,1623.5C 1343.66,1623.83 1322.99,1623.5 1302.5,1622.5C 1303.39,1621.89 1304.39,1621.56 1305.5,1621.5 Z"/></g>
<g><path style="opacity:1" fill="#fefefe" d="M 1302.5,1622.5 C 1322.99,1623.5 1343.66,1623.83 1364.5,1623.5C 1343.34,1624.66 1322,1624.83 1300.5,1624C 1301.04,1623.28 1301.71,1622.78 1302.5,1622.5 Z"/></g>
<g><path style="opacity:1" fill="transparent" d="M 1470.5,1672.5 C 1468.97,1674.25 1466.97,1675.25 1464.5,1675.5C 1466.03,1673.75 1468.03,1672.75 1470.5,1672.5 Z"/></g>
<g><path style="opacity:1" fill="transparent" d="M 1339.5,1691.5 C 1305.83,1691.5 1272.17,1691.5 1238.5,1691.5C 1238.5,1779.5 1238.5,1867.5 1238.5,1955.5C 1210,1955.83 1181.66,1955.5 1153.5,1954.5C 1181.5,1954.5 1209.5,1954.5 1237.5,1954.5C 1237.5,1866.5 1237.5,1778.5 1237.5,1690.5C 1271.67,1690.17 1305.67,1690.5 1339.5,1691.5 Z"/></g>
<g><path style="opacity:1" fill="#fefefe" d="M 1592.5,1952.5 C 1593.17,1952.5 1593.5,1952.83 1593.5,1953.5C 1560,1954.5 1526.34,1954.83 1492.5,1954.5C 1492.5,1954.17 1492.5,1953.83 1492.5,1953.5C 1526,1953.83 1559.34,1953.5 1592.5,1952.5 Z"/></g>
<g><path style="opacity:1" d="M 1593.5,1953.5 C 1594.04,1953.56 1594.38,1953.89 1594.5,1954.5C 1560.34,1955.83 1526.34,1955.83 1492.5,1954.5C 1526.34,1954.83 1560,1954.5 1593.5,1953.5 Z"/></g>
</svg>
