<?xml version="1.0" encoding="UTF-8"?>
<!DOCTYPE svg PUBLIC "-//W3C//DTD SVG 1.1//EN" "http://www.w3.org/Graphics/SVG/1.1/DTD/svg11.dtd">
<svg xmlns="http://www.w3.org/2000/svg" version="1.1" width="840px" height="586px" style="shape-rendering:geometricPrecision; text-rendering:geometricPrecision; image-rendering:optimizeQuality; fill-rule:evenodd; clip-rule:evenodd" xmlns:xlink="http://www.w3.org/1999/xlink">
<g><path style="opacity:1" fill="transparent" d="M -0.5,-0.5 C 279.5,-0.5 559.5,-0.5 839.5,-0.5C 839.5,194.833 839.5,390.167 839.5,585.5C 559.5,585.5 279.5,585.5 -0.5,585.5C -0.5,390.167 -0.5,194.833 -0.5,-0.5 Z"/></g>
<g><path style="opacity:1" fill="#464646" d="M 239.5,182.5 C 208.456,182.182 177.456,182.515 146.5,183.5C 146.611,182.883 146.944,182.383 147.5,182C 178.336,181.169 209.003,181.336 239.5,182.5 Z"/></g>
<g><path style="opacity:1" fill="#4c4c4c" d="M 201.5,300.5 C 203.04,302.838 203.706,305.505 203.5,308.5C 201.96,306.162 201.294,303.495 201.5,300.5 Z"/></g>
<g><path style="opacity:1" fill="#727272" d="M 208.5,327.5 C 210.04,329.838 210.706,332.505 210.5,335.5C 209.232,333.095 208.565,330.428 208.5,327.5 Z"/></g>
<g><path style="opacity:1" fill="#505050" d="M 631.5,324.5 C 631.435,327.428 630.768,330.095 629.5,332.5C 629.294,329.505 629.96,326.838 631.5,324.5 Z"/></g>
<g><path style="opacity:1" fill="#ebebeb" d="M 239.5,182.5 C 242.55,183.295 245.55,184.295 248.5,185.5C 251.853,188.687 255.353,191.687 259,194.5C 268.961,209.695 276.627,226.029 282,243.5C 285.065,255.588 288.231,267.588 291.5,279.5C 291.565,282.428 292.232,285.095 293.5,287.5C 294.961,292.806 296.294,298.139 297.5,303.5C 297.294,306.495 297.96,309.162 299.5,311.5C 301.471,318.825 303.637,326.158 306,333.5C 307.874,326.049 310.04,318.716 312.5,311.5C 313.768,309.095 314.435,306.428 314.5,303.5C 316.04,301.162 316.706,298.495 316.5,295.5C 317.223,290.001 318.556,284.668 320.5,279.5C 322.04,277.162 322.706,274.495 322.5,271.5C 325.097,267.357 326.43,262.69 326.5,257.5C 330.046,244.971 334.046,232.637 338.5,220.5C 339.906,220.027 340.573,219.027 340.5,217.5C 343.126,210.247 346.793,203.58 351.5,197.5C 353.914,196.089 355.581,194.089 356.5,191.5C 363.719,183.583 372.719,180.75 383.5,183C 386.12,183.981 388.62,185.147 391,186.5C 400.272,181.55 409.772,181.216 419.5,185.5C 428.981,181.525 438.481,181.525 448,185.5C 459.479,180.583 469.979,181.916 479.5,189.5C 479.973,190.906 480.973,191.573 482.5,191.5C 483.419,194.089 485.086,196.089 487.5,197.5C 490.135,200.079 492.301,203.079 494,206.5C 503.309,226.392 510.476,247.059 515.5,268.5C 515.682,272.489 516.682,276.156 518.5,279.5C 519.301,281.042 519.634,282.708 519.5,284.5C 519.59,286.696 519.923,288.863 520.5,291C 518.357,293.848 518.191,296.682 520,299.5C 520.333,298.5 520.667,297.5 521,296.5C 522.276,298.858 523.442,301.192 524.5,303.5C 524.565,306.428 525.232,309.095 526.5,311.5C 528.444,316.668 529.777,322.001 530.5,327.5C 530.435,330.471 531.269,333.138 533,335.5C 533.464,334.906 533.631,334.239 533.5,333.5C 540.01,307.24 547.01,281.24 554.5,255.5C 555.768,253.095 556.435,250.428 556.5,247.5C 558.074,245.898 558.741,243.898 558.5,241.5C 562.768,225.052 569.601,209.719 579,195.5C 583.014,190.583 587.848,186.75 593.5,184C 610.27,182.854 627.103,182.354 644,182.5C 660.209,182.507 676.376,182.84 692.5,183.5C 693.952,186.282 693.619,188.782 691.5,191C 683.672,191.998 677.172,195.498 672,201.5C 661.1,219.179 653.1,238.179 648,258.5C 642.177,280.46 636.677,302.46 631.5,324.5C 629.96,326.838 629.294,329.505 629.5,332.5C 628.076,334.515 627.41,336.848 627.5,339.5C 626.566,340.568 626.232,341.901 626.5,343.5C 624.926,345.102 624.259,347.102 624.5,349.5C 619.266,369.967 610.766,388.967 599,406.5C 588.764,418.962 576.264,421.962 561.5,415.5C 551.978,419.481 542.478,419.481 533,415.5C 528.161,417.336 523.161,418.336 518,418.5C 513.134,417.828 508.301,416.828 503.5,415.5C 500.603,416.129 497.936,417.129 495.5,418.5C 490.012,418.752 484.678,418.085 479.5,416.5C 473.725,413.254 468.558,408.92 464,403.5C 457.316,391.138 451.483,378.472 446.5,365.5C 446.741,363.102 446.074,361.102 444.5,359.5C 438.782,338.038 433.115,316.705 427.5,295.5C 427.435,292.572 426.768,289.905 425.5,287.5C 424.111,280.001 422.111,272.667 419.5,265.5C 416.532,274.343 414.198,283.343 412.5,292.5C 410.517,295.799 409.517,299.466 409.5,303.5C 404.752,322.241 399.752,340.908 394.5,359.5C 392.926,361.102 392.259,363.102 392.5,365.5C 387.554,382.668 379.221,398.001 367.5,411.5C 365.205,412.136 363.539,413.469 362.5,415.5C 359.689,415.826 357.022,416.659 354.5,418C 350.848,418.499 347.182,418.665 343.5,418.5C 341.898,416.926 339.898,416.259 337.5,416.5C 334.067,415.124 330.734,415.624 327.5,418C 320.081,419.01 312.914,418.176 306,415.5C 296.285,419.493 286.619,419.493 277,415.5C 262.291,421.945 249.958,418.945 240,406.5C 237,402.167 234,397.833 231,393.5C 224.999,378.992 219.499,364.326 214.5,349.5C 214.741,347.102 214.074,345.102 212.5,343.5C 212.435,340.572 211.768,337.905 210.5,335.5C 210.706,332.505 210.04,329.838 208.5,327.5C 207.196,320.939 205.529,314.606 203.5,308.5C 203.706,305.505 203.04,302.838 201.5,300.5C 195.741,273.191 187.908,246.525 178,220.5C 173.494,211.173 167.66,202.84 160.5,195.5C 156.09,193.227 151.424,191.56 146.5,190.5C 145.234,188.028 145.234,185.694 146.5,183.5C 177.456,182.515 208.456,182.182 239.5,182.5 Z"/></g>
<g><path style="opacity:1" fill="#a9a9a9" d="M 621.5,323.5 C 621.729,327.917 620.729,331.917 618.5,335.5C 618.719,331.2 619.719,327.2 621.5,323.5 Z"/></g>
<g><path style="opacity:1" fill="#8a8a8a" d="M 530.5,327.5 C 531.5,329.5 532.5,331.5 533.5,333.5C 533.631,334.239 533.464,334.906 533,335.5C 531.269,333.138 530.435,330.471 530.5,327.5 Z"/></g>
<g><path style="opacity:1" fill="#727272" d="M 443.5,319.5 C 445.04,321.838 445.706,324.505 445.5,327.5C 444.232,325.095 443.565,322.428 443.5,319.5 Z"/></g>
<g><path style="opacity:1" fill="#8a8a8a" d="M 596.5,311.5 C 596.435,314.428 595.768,317.095 594.5,319.5C 594.294,316.505 594.96,313.838 596.5,311.5 Z"/></g>
<g><path style="opacity:1" fill="#5a5a5a" d="M 322.5,311.5 C 322.829,314.228 322.163,316.562 320.5,318.5C 320.41,315.848 321.076,313.515 322.5,311.5 Z"/></g>
<g><path style="opacity:1" fill="#8b8b8b" d="M 242.5,311.5 C 244.04,313.838 244.706,316.505 244.5,319.5C 243.232,317.095 242.565,314.428 242.5,311.5 Z"/></g>
<g><path style="opacity:1" fill="#5c5c5c" d="M 516.5,311.5 C 517.924,313.515 518.59,315.848 518.5,318.5C 517.076,316.485 516.41,314.152 516.5,311.5 Z"/></g>
<g><path style="opacity:1" fill="#7b7b7b" d="M 524.5,303.5 C 526.04,305.838 526.706,308.505 526.5,311.5C 525.232,309.095 524.565,306.428 524.5,303.5 Z"/></g>
<g><path style="opacity:1" fill="#7a7a7a" d="M 314.5,303.5 C 314.435,306.428 313.768,309.095 312.5,311.5C 312.294,308.505 312.96,305.838 314.5,303.5 Z"/></g>
<g><path style="opacity:1" fill="#747474" d="M 297.5,303.5 C 299.04,305.838 299.706,308.505 299.5,311.5C 297.96,309.162 297.294,306.495 297.5,303.5 Z"/></g>
<g><path style="opacity:1" fill="#939393" d="M 240.5,303.5 C 242.04,305.838 242.706,308.505 242.5,311.5C 240.96,309.162 240.294,306.495 240.5,303.5 Z"/></g>
<g><path style="opacity:1" fill="#676767" d="M 324.5,303.5 C 324.435,306.428 323.768,309.095 322.5,311.5C 322.294,308.505 322.96,305.838 324.5,303.5 Z"/></g>
<g><path style="opacity:1" fill="#818181" d="M 316.5,295.5 C 316.706,298.495 316.04,301.162 314.5,303.5C 314.294,300.505 314.96,297.838 316.5,295.5 Z"/></g>
<g><path style="opacity:1" fill="#595959" d="M 412.5,292.5 C 412.483,296.534 411.483,300.201 409.5,303.5C 409.517,299.466 410.517,295.799 412.5,292.5 Z"/></g>
<g><path style="opacity:1" fill="#c3c3c3" d="M 519.5,284.5 C 522.04,290.501 523.706,296.835 524.5,303.5C 523.442,301.192 522.276,298.858 521,296.5C 520.667,297.5 520.333,298.5 520,299.5C 518.191,296.682 518.357,293.848 520.5,291C 519.923,288.863 519.59,286.696 519.5,284.5 Z"/></g>
<g><path style="opacity:1" fill="#616161" d="M 425.5,287.5 C 426.768,289.905 427.435,292.572 427.5,295.5C 425.96,293.162 425.294,290.495 425.5,287.5 Z"/></g>
<g><path style="opacity:1" fill="#595959" d="M 612.5,287.5 C 612.435,290.428 611.768,293.095 610.5,295.5C 610.294,292.505 610.96,289.838 612.5,287.5 Z"/></g>
<g><path style="opacity:1" fill="#909090" d="M 602.5,287.5 C 602.435,290.428 601.768,293.095 600.5,295.5C 600.294,292.505 600.96,289.838 602.5,287.5 Z"/></g>
<g><path style="opacity:1" fill="#929292" d="M 283.5,287.5 C 285.223,289.78 285.889,292.447 285.5,295.5C 284.469,293.039 283.802,290.373 283.5,287.5 Z"/></g>
<g><path style="opacity:1" fill="#6d6d6d" d="M 348.5,281.5 C 348.741,283.898 348.074,285.898 346.5,287.5C 346.259,285.102 346.926,283.102 348.5,281.5 Z"/></g>
<g><path style="opacity:1" fill="#888888" d="M 604.5,279.5 C 604.706,282.495 604.04,285.162 602.5,287.5C 602.294,284.505 602.96,281.838 604.5,279.5 Z"/></g>
<g><path style="opacity:1" fill="#808080" d="M 234.5,279.5 C 236.04,281.838 236.706,284.505 236.5,287.5C 235.232,285.095 234.565,282.428 234.5,279.5 Z"/></g>
<g><path style="opacity:1" fill="#6e6e6e" d="M 291.5,279.5 C 293.04,281.838 293.706,284.505 293.5,287.5C 292.232,285.095 291.565,282.428 291.5,279.5 Z"/></g>
<g><path style="opacity:1" fill="#535353" d="M 224.5,279.5 C 226.04,281.838 226.706,284.505 226.5,287.5C 225.232,285.095 224.565,282.428 224.5,279.5 Z"/></g>
<g><path style="opacity:1" fill="#8b8b8b" d="M 606.5,271.5 C 606.706,274.495 606.04,277.162 604.5,279.5C 604.294,276.505 604.96,273.838 606.5,271.5 Z"/></g>
<g><path style="opacity:1" fill="#7d7d7d" d="M 322.5,271.5 C 322.706,274.495 322.04,277.162 320.5,279.5C 320.294,276.505 320.96,273.838 322.5,271.5 Z"/></g>
<g><path style="opacity:1" fill="#a3a3a3" d="M 636.5,265.5 C 636.432,270.654 635.099,275.32 632.5,279.5C 633.465,274.639 634.799,269.972 636.5,265.5 Z"/></g>
<g><path style="opacity:1" fill="#868686" d="M 515.5,268.5 C 517.483,271.799 518.483,275.466 518.5,279.5C 516.682,276.156 515.682,272.489 515.5,268.5 Z"/></g>
<g><path style="opacity:1" fill="#888888" d="M 379.5,271.5 C 379.435,274.428 378.768,277.095 377.5,279.5C 377.294,276.505 377.96,273.838 379.5,271.5 Z"/></g>
<g><path style="opacity:1" fill="#a8a8a8" d="M 326.5,257.5 C 326.43,262.69 325.097,267.357 322.5,271.5C 323.623,266.731 324.957,262.065 326.5,257.5 Z"/></g>
<g><path style="opacity:1" fill="#9f9f9f" d="M 258.5,263.5 C 260.04,265.838 260.706,268.505 260.5,271.5C 259.232,269.095 258.565,266.428 258.5,263.5 Z"/></g>
<g><path style="opacity:1" fill="#8c8c8c" d="M 256.5,255.5 C 258.04,257.838 258.706,260.505 258.5,263.5C 257.232,261.095 256.565,258.428 256.5,255.5 Z"/></g>
<g><path style="opacity:1" fill="#989898" d="M 425.5,245.5 C 425.944,251.721 427.277,257.721 429.5,263.5C 425.723,257.939 424.39,251.939 425.5,245.5 Z"/></g>
<g><path style="opacity:1" fill="#646464" d="M 566.5,247.5 C 566.435,250.428 565.768,253.095 564.5,255.5C 564.294,252.505 564.96,249.838 566.5,247.5 Z"/></g>
<g><path style="opacity:1" fill="#8f8f8f" d="M 556.5,247.5 C 556.435,250.428 555.768,253.095 554.5,255.5C 554.294,252.505 554.96,249.838 556.5,247.5 Z"/></g>
<g><path style="opacity:1" fill="#8d8d8d" d="M 414.5,247.5 C 414.435,250.428 413.768,253.095 412.5,255.5C 412.294,252.505 412.96,249.838 414.5,247.5 Z"/></g>
<g><path style="opacity:1" fill="#606060" d="M 272.5,247.5 C 274.04,249.838 274.706,252.505 274.5,255.5C 273.232,253.095 272.565,250.428 272.5,247.5 Z"/></g>
<g><path style="opacity:1" fill="#919191" d="M 558.5,241.5 C 558.741,243.898 558.074,245.898 556.5,247.5C 556.259,245.102 556.926,243.102 558.5,241.5 Z"/></g>
<g><path style="opacity:1" fill="#595959" d="M 468.5,239.5 C 470.074,241.102 470.741,243.102 470.5,245.5C 468.926,243.898 468.259,241.898 468.5,239.5 Z"/></g>
<g><path style="opacity:1" fill="#515151" d="M 370.5,239.5 C 370.693,242.811 369.693,245.478 367.5,247.5C 367.903,244.514 368.903,241.848 370.5,239.5 Z"/></g>
<g><path style="opacity:1" fill="#9f9f9f" d="M 194.5,239.5 C 196.585,241.684 197.585,244.351 197.5,247.5C 195.415,245.316 194.415,242.649 194.5,239.5 Z"/></g>
<g><path style="opacity:1" fill="#919191" d="M 448.5,233.5 C 450.816,237.794 452.15,242.46 452.5,247.5C 450.05,243.314 448.717,238.647 448.5,233.5 Z"/></g>
<g><path style="opacity:1" fill="#6e6e6e" d="M 440.5,239.5 C 442.04,241.838 442.706,244.505 442.5,247.5C 441.232,245.095 440.565,242.428 440.5,239.5 Z"/></g>
<g><path style="opacity:1" fill="#808080" d="M 388.5,239.5 C 388.435,242.428 387.768,245.095 386.5,247.5C 386.294,244.505 386.96,241.838 388.5,239.5 Z"/></g>
<g><path style="opacity:1" fill="#5d5d5d" d="M 372.5,233.5 C 372.741,235.898 372.074,237.898 370.5,239.5C 370.259,237.102 370.926,235.102 372.5,233.5 Z"/></g>
<g><path style="opacity:1" fill="#8a8a8a" d="M 391.5,231.5 C 391.585,234.649 390.585,237.316 388.5,239.5C 388.733,236.458 389.733,233.792 391.5,231.5 Z"/></g>
<g><path style="opacity:1" fill="#545454" d="M 647.5,230.5 C 647.088,232.887 646.088,234.887 644.5,236.5C 644.621,233.895 645.621,231.895 647.5,230.5 Z"/></g>
<g><path style="opacity:1" fill="#979797" d="M 621.5,223.5 C 621.585,226.649 620.585,229.316 618.5,231.5C 618.733,228.458 619.733,225.792 621.5,223.5 Z"/></g>
<g><path style="opacity:1" fill="#0a0a0a" d="M 440.5,239.5 C 440.565,242.428 441.232,245.095 442.5,247.5C 445.761,256.238 448.594,265.238 451,274.5C 457.544,302.342 464.544,330.009 472,357.5C 476.489,368.472 480.822,379.472 485,390.5C 487.589,396.016 490.922,401.016 495,405.5C 495.49,406.793 495.657,408.127 495.5,409.5C 490.211,409.881 485.211,408.881 480.5,406.5C 477.5,403.167 474.5,399.833 471.5,396.5C 464.675,384.363 459.009,371.696 454.5,358.5C 454.59,355.848 453.924,353.515 452.5,351.5C 452.741,349.102 452.074,347.102 450.5,345.5C 449.117,339.289 447.451,333.289 445.5,327.5C 445.706,324.505 445.04,321.838 443.5,319.5C 439.213,300.731 434.547,282.064 429.5,263.5C 427.277,257.721 425.944,251.721 425.5,245.5C 427.046,237.745 429.713,230.411 433.5,223.5C 436.442,228.706 438.775,234.039 440.5,239.5 Z"/></g>
<g><path style="opacity:1" fill="#585858" d="M 235.5,223.5 C 237.585,225.684 238.585,228.351 238.5,231.5C 236.415,229.316 235.415,226.649 235.5,223.5 Z"/></g>
<g><path style="opacity:1" fill="#979797" d="M 217.5,223.5 C 219.267,225.792 220.267,228.458 220.5,231.5C 218.415,229.316 217.415,226.649 217.5,223.5 Z"/></g>
<g><path style="opacity:1" fill="#767676" d="M 623.5,219.5 C 623.34,221.153 622.674,222.486 621.5,223.5C 621.229,221.62 621.896,220.287 623.5,219.5 Z"/></g>
<g><path style="opacity:1" fill="#707070" d="M 340.5,217.5 C 340.573,219.027 339.906,220.027 338.5,220.5C 338.427,218.973 339.094,217.973 340.5,217.5 Z"/></g>
<g><path style="opacity:1" fill="#a7a7a7" d="M 406.5,199.5 C 404.572,204.083 402.239,208.416 399.5,212.5C 400.602,207.425 402.936,203.091 406.5,199.5 Z"/></g>
<g><path style="opacity:1" fill="#090909" d="M 468.5,239.5 C 468.259,241.898 468.926,243.898 470.5,245.5C 480.295,280.724 489.795,316.057 499,351.5C 502.722,363.718 507.055,375.718 512,387.5C 512.49,389.545 512.323,391.545 511.5,393.5C 509.674,395.147 508.34,397.147 507.5,399.5C 506.198,400.357 504.865,400.857 503.5,401C 499.111,394.938 495.111,388.605 491.5,382C 488.863,374.422 486.03,366.922 483,359.5C 473.715,326.36 465.048,293.026 457,259.5C 455.79,255.277 454.29,251.277 452.5,247.5C 452.15,242.46 450.816,237.794 448.5,233.5C 446.278,225.829 443.278,218.496 439.5,211.5C 441.019,206.494 443.853,202.494 448,199.5C 450.635,201.808 452.968,204.475 455,207.5C 460.971,217.59 465.471,228.256 468.5,239.5 Z"/></g>
<g><path style="opacity:1" fill="#0a0a0a" d="M 414.5,247.5 C 412.96,249.838 412.294,252.505 412.5,255.5C 403.896,285.243 395.896,315.243 388.5,345.5C 385.674,352.581 383.34,359.915 381.5,367.5C 378.943,372.963 376.61,378.63 374.5,384.5C 371.337,389.491 368.17,394.491 365,399.5C 360.627,404.767 355.127,408.1 348.5,409.5C 346.275,409.695 344.609,408.861 343.5,407C 347.266,400.236 351.432,393.736 356,387.5C 358.273,380.014 360.94,372.68 364,365.5C 374.107,330.742 383.44,295.742 392,260.5C 396.507,245.164 401.84,230.164 408,215.5C 411.898,208.11 416.731,201.444 422.5,195.5C 427.848,191.289 433.514,190.622 439.5,193.5C 434.339,199.148 430.172,205.482 427,212.5C 425.242,218.116 422.908,223.449 420,228.5C 418.462,234.945 416.628,241.279 414.5,247.5 Z"/></g>
<g><path style="opacity:1" fill="#939393" d="M 482.5,191.5 C 484.914,192.911 486.581,194.911 487.5,197.5C 485.086,196.089 483.419,194.089 482.5,191.5 Z"/></g>
<g><path style="opacity:1" fill="#0a0a0a" d="M 348.5,281.5 C 346.926,283.102 346.259,285.102 346.5,287.5C 342.52,302.351 338.853,317.351 335.5,332.5C 333.517,335.799 332.517,339.466 332.5,343.5C 329.115,355.05 324.949,366.384 320,377.5C 316.462,369.384 313.628,361.051 311.5,352.5C 314.505,341.13 317.505,329.796 320.5,318.5C 322.163,316.562 322.829,314.228 322.5,311.5C 323.768,309.095 324.435,306.428 324.5,303.5C 327.619,287.978 331.453,272.645 336,257.5C 341.187,239.405 348.187,222.071 357,205.5C 362.347,196.417 370.181,191.917 380.5,192C 381.308,192.308 381.975,192.808 382.5,193.5C 373.551,205.399 366.718,218.399 362,232.5C 356.594,248.556 352.094,264.889 348.5,281.5 Z"/></g>
<g><path style="opacity:1" fill="#999999" d="M 356.5,191.5 C 355.581,194.089 353.914,196.089 351.5,197.5C 352.419,194.911 354.086,192.911 356.5,191.5 Z"/></g>
<g><path style="opacity:1" fill="#0b0b0b" d="M 647.5,230.5 C 645.621,231.895 644.621,233.895 644.5,236.5C 641.429,246.047 638.762,255.714 636.5,265.5C 634.799,269.972 633.465,274.639 632.5,279.5C 628.463,294.138 624.796,308.805 621.5,323.5C 619.719,327.2 618.719,331.2 618.5,335.5C 616.428,343.494 614.094,351.494 611.5,359.5C 609.415,361.684 608.415,364.351 608.5,367.5C 604.55,378.954 599.05,389.621 592,399.5C 589.234,402.777 586.067,405.443 582.5,407.5C 578.566,408.36 574.566,408.693 570.5,408.5C 569.475,408.103 569.308,407.437 570,406.5C 574.303,400.188 578.637,393.854 583,387.5C 586.327,378.177 589.66,368.843 593,359.5C 599.165,338.167 604.998,316.834 610.5,295.5C 611.768,293.095 612.435,290.428 612.5,287.5C 618.07,257.954 627.903,229.954 642,203.5C 646.695,196.155 653.361,192.155 662,191.5C 663.833,191.833 665.667,192.167 667.5,192.5C 658.159,203.852 651.493,216.519 647.5,230.5 Z"/></g>
<g><path style="opacity:1" fill="#0b0b0b" d="M 516.5,311.5 C 516.41,314.152 517.076,316.485 518.5,318.5C 521.496,329.801 524.496,341.135 527.5,352.5C 525.368,361.062 522.535,369.395 519,377.5C 517.072,374.265 515.572,370.932 514.5,367.5C 514.267,364.458 513.267,361.792 511.5,359.5C 509.824,354.072 508.158,348.738 506.5,343.5C 506.483,339.466 505.483,335.799 503.5,332.5C 495.454,299.319 486.621,266.319 477,233.5C 473.598,223.868 469.598,214.534 465,205.5C 462.412,201.324 459.579,197.324 456.5,193.5C 460.35,191.023 464.35,190.856 468.5,193C 475.246,197.657 480.746,203.491 485,210.5C 490.74,222.355 495.74,234.688 500,247.5C 505.236,268.95 510.736,290.284 516.5,311.5 Z"/></g>
<g><path style="opacity:1" fill="#0b0b0b" d="M 224.5,279.5 C 224.565,282.428 225.232,285.095 226.5,287.5C 231.899,305.982 236.732,324.649 241,343.5C 245.565,357.697 250.398,371.697 255.5,385.5C 255.427,387.027 256.094,388.027 257.5,388.5C 261.067,395.194 265.067,401.527 269.5,407.5C 261.093,410.708 253.927,408.708 248,401.5C 244.302,395.48 240.635,389.48 237,383.5C 232.667,371.833 228.333,360.167 224,348.5C 216.299,319.253 208.965,289.92 202,260.5C 200.343,256.197 198.843,251.864 197.5,247.5C 197.585,244.351 196.585,241.684 194.5,239.5C 190.452,221.999 182.785,206.332 171.5,192.5C 181.52,190.916 189.686,194.249 196,202.5C 197.752,205.672 199.752,208.672 202,211.5C 211.988,233.299 219.488,255.966 224.5,279.5 Z"/></g>
<g><path style="opacity:1" fill="#090909" d="M 637.5,193.5 C 631.512,201.471 626.846,210.137 623.5,219.5C 621.896,220.287 621.229,221.62 621.5,223.5C 619.733,225.792 618.733,228.458 618.5,231.5C 613.623,244.535 609.623,257.868 606.5,271.5C 604.96,273.838 604.294,276.505 604.5,279.5C 602.96,281.838 602.294,284.505 602.5,287.5C 600.96,289.838 600.294,292.505 600.5,295.5C 598.563,300.582 597.23,305.915 596.5,311.5C 594.96,313.838 594.294,316.505 594.5,319.5C 589.122,338.146 583.289,356.813 577,375.5C 573.682,382.136 570.349,388.802 567,395.5C 563.5,399.667 559.667,403.5 555.5,407C 551.363,409.559 547.03,410.059 542.5,408.5C 542.557,407.391 542.89,406.391 543.5,405.5C 549.098,397.308 553.931,388.642 558,379.5C 559.371,373.882 561.205,368.548 563.5,363.5C 565.074,361.898 565.741,359.898 565.5,357.5C 575.64,318.641 585.973,279.808 596.5,241C 600.989,226.522 607.489,213.022 616,200.5C 618.328,199.001 620.495,197.334 622.5,195.5C 624.341,194.327 626.174,194.327 628,195.5C 630.942,192.812 634.109,192.145 637.5,193.5 Z"/></g>
<g><path style="opacity:1" fill="#090909" d="M 235.5,223.5 C 235.415,226.649 236.415,229.316 238.5,231.5C 242.267,241.97 245.767,252.637 249,263.5C 257.796,297.554 266.796,331.554 276,365.5C 281.515,380.196 288.348,394.196 296.5,407.5C 296.291,408.086 295.957,408.586 295.5,409C 290.389,410.111 285.722,409.111 281.5,406C 273.814,398.803 267.981,390.303 264,380.5C 256.716,360.348 250.216,340.014 244.5,319.5C 244.706,316.505 244.04,313.838 242.5,311.5C 242.706,308.505 242.04,305.838 240.5,303.5C 239.785,297.897 238.452,292.564 236.5,287.5C 236.706,284.505 236.04,281.838 234.5,279.5C 233.111,272.828 231.611,266.161 230,259.5C 227.13,249.996 223.963,240.663 220.5,231.5C 220.267,228.458 219.267,225.792 217.5,223.5C 213.974,211.717 207.974,201.383 199.5,192.5C 202.784,191.343 206.118,191.176 209.5,192C 214.267,194.438 218.767,197.271 223,200.5C 227.681,207.86 231.848,215.527 235.5,223.5 Z"/></g>
<g><path style="opacity:1" fill="#2c2c2c" d="M 637.5,193.5 C 634.109,192.145 630.942,192.812 628,195.5C 626.174,194.327 624.341,194.327 622.5,195.5C 625.634,192.509 629.468,191.176 634,191.5C 635.833,191.833 637.667,192.167 639.5,192.5C 639.043,193.298 638.376,193.631 637.5,193.5 Z"/></g>
<g><path style="opacity:1" fill="#0a0a0a" d="M 513.5,408.5 C 514.925,407.078 515.925,405.411 516.5,403.5C 518.874,399.475 521.207,395.475 523.5,391.5C 525.771,389.388 527.104,386.721 527.5,383.5C 532.309,373.218 535.975,362.551 538.5,351.5C 540.585,349.316 541.585,346.649 541.5,343.5C 548.327,313.788 555.993,284.455 564.5,255.5C 565.768,253.095 566.435,250.428 566.5,247.5C 570.936,230.973 577.769,215.64 587,201.5C 591.721,194.974 598.055,191.641 606,191.5C 607.5,191.833 609,192.167 610.5,192.5C 600.386,205.393 592.886,219.726 588,235.5C 577.479,271.98 567.812,308.647 559,345.5C 555.266,355.368 551.933,365.368 549,375.5C 544.695,385.276 539.195,394.276 532.5,402.5C 527.138,408.179 520.805,410.179 513.5,408.5 Z"/></g>
<g><path style="opacity:1" fill="#090909" d="M 406.5,199.5 C 402.936,203.091 400.602,207.425 399.5,212.5C 395.677,218.288 393.011,224.622 391.5,231.5C 389.733,233.792 388.733,236.458 388.5,239.5C 386.96,241.838 386.294,244.505 386.5,247.5C 383.089,255.042 380.756,263.042 379.5,271.5C 377.96,273.838 377.294,276.505 377.5,279.5C 371.714,300.641 366.214,321.974 361,343.5C 356.735,356.962 352.068,370.295 347,383.5C 343.067,389.712 338.901,395.712 334.5,401.5C 330.847,398.348 328.18,394.515 326.5,390C 327.148,388.56 327.481,387.06 327.5,385.5C 329.379,384.105 330.379,382.105 330.5,379.5C 336.299,362.32 341.799,344.987 347,327.5C 353.518,300.775 360.351,274.108 367.5,247.5C 369.693,245.478 370.693,242.811 370.5,239.5C 372.074,237.898 372.741,235.898 372.5,233.5C 376.435,221.63 381.935,210.63 389,200.5C 393.149,195.343 398.482,192.343 405,191.5C 407.145,191.396 408.979,192.063 410.5,193.5C 409.143,195.565 407.81,197.565 406.5,199.5 Z"/></g>
<g><path style="opacity:1" fill="#0b0b0b" d="M 272.5,247.5 C 272.565,250.428 273.232,253.095 274.5,255.5C 278.245,265.854 281.245,276.52 283.5,287.5C 283.802,290.373 284.469,293.039 285.5,295.5C 291.669,319.5 298.169,343.5 305,367.5C 308.511,374.536 311.511,381.869 314,389.5C 316.911,394.751 320.244,399.751 324,404.5C 325.009,406.025 325.509,407.692 325.5,409.5C 316.631,410.48 309.465,407.48 304,400.5C 294.541,385.122 287.207,368.789 282,351.5C 274.504,324.769 267.337,298.102 260.5,271.5C 260.706,268.505 260.04,265.838 258.5,263.5C 258.706,260.505 258.04,257.838 256.5,255.5C 251.791,236.205 244.624,217.871 235,200.5C 232.605,198.056 230.438,195.39 228.5,192.5C 232.167,191.167 235.833,191.167 239.5,192.5C 244.313,194.651 248.479,197.651 252,201.5C 261.276,215.722 268.11,231.055 272.5,247.5 Z"/></g>
<g><path style="opacity:1" fill="#6b6b6b" d="M 479.5,189.5 C 481.179,189.285 482.179,189.952 482.5,191.5C 480.973,191.573 479.973,190.906 479.5,189.5 Z"/></g>
<g><path style="opacity:1" fill="#898989" d="M 335.5,332.5 C 335.074,336.427 334.074,340.093 332.5,343.5C 332.517,339.466 333.517,335.799 335.5,332.5 Z"/></g>
<g><path style="opacity:1" fill="#898989" d="M 503.5,332.5 C 505.483,335.799 506.483,339.466 506.5,343.5C 504.926,340.093 503.926,336.427 503.5,332.5 Z"/></g>
<g><path style="opacity:1" fill="#4d4d4d" d="M 629.5,332.5 C 629.829,335.228 629.163,337.562 627.5,339.5C 627.41,336.848 628.076,334.515 629.5,332.5 Z"/></g>
<g><path style="opacity:1" fill="#515151" d="M 212.5,343.5 C 214.074,345.102 214.741,347.102 214.5,349.5C 212.926,347.898 212.259,345.898 212.5,343.5 Z"/></g>
<g><path style="opacity:1" fill="#535353" d="M 541.5,343.5 C 541.585,346.649 540.585,349.316 538.5,351.5C 538.415,348.351 539.415,345.684 541.5,343.5 Z"/></g>
<g><path style="opacity:1" fill="#535353" d="M 626.5,343.5 C 626.741,345.898 626.074,347.898 624.5,349.5C 624.259,347.102 624.926,345.102 626.5,343.5 Z"/></g>
<g><path style="opacity:1" fill="#7b7b7b" d="M 450.5,345.5 C 452.074,347.102 452.741,349.102 452.5,351.5C 450.926,349.898 450.259,347.898 450.5,345.5 Z"/></g>
<g><path style="opacity:1" fill="#808080" d="M 452.5,351.5 C 453.924,353.515 454.59,355.848 454.5,358.5C 453.076,356.485 452.41,354.152 452.5,351.5 Z"/></g>
<g><path style="opacity:1" fill="#c6c6c6" d="M 388.5,345.5 C 388.143,350.313 387.143,354.98 385.5,359.5C 385.608,360.442 385.941,361.275 386.5,362C 384.991,363.821 383.325,365.654 381.5,367.5C 383.34,359.915 385.674,352.581 388.5,345.5 Z"/></g>
<g><path style="opacity:1" fill="#525252" d="M 565.5,357.5 C 565.741,359.898 565.074,361.898 563.5,363.5C 563.259,361.102 563.926,359.102 565.5,357.5 Z"/></g>
<g><path style="opacity:1" fill="#545454" d="M 394.5,359.5 C 394.741,361.898 394.074,363.898 392.5,365.5C 392.259,363.102 392.926,361.102 394.5,359.5 Z"/></g>
<g><path style="opacity:1" fill="#535353" d="M 444.5,359.5 C 446.074,361.102 446.741,363.102 446.5,365.5C 444.926,363.898 444.259,361.898 444.5,359.5 Z"/></g>
<g><path style="opacity:1" fill="#8d8d8d" d="M 511.5,359.5 C 513.267,361.792 514.267,364.458 514.5,367.5C 512.415,365.316 511.415,362.649 511.5,359.5 Z"/></g>
<g><path style="opacity:1" fill="#9a9a9a" d="M 611.5,359.5 C 611.585,362.649 610.585,365.316 608.5,367.5C 608.415,364.351 609.415,361.684 611.5,359.5 Z"/></g>
<g><path style="opacity:1" fill="#545454" d="M 330.5,379.5 C 330.379,382.105 329.379,384.105 327.5,385.5C 327.755,383.033 328.755,381.033 330.5,379.5 Z"/></g>
<g><path style="opacity:1" fill="#767676" d="M 255.5,385.5 C 256.906,385.973 257.573,386.973 257.5,388.5C 256.094,388.027 255.427,387.027 255.5,385.5 Z"/></g>
<g><path style="opacity:1" fill="#777777" d="M 527.5,383.5 C 527.104,386.721 525.771,389.388 523.5,391.5C 524.27,388.504 525.604,385.837 527.5,383.5 Z"/></g>
<g><path style="opacity:1" fill="#8d8d8d" d="M 511.5,393.5 C 511.155,396.198 509.822,398.198 507.5,399.5C 508.34,397.147 509.674,395.147 511.5,393.5 Z"/></g>
<g><path style="opacity:1" fill="#5e5e5e" d="M 516.5,403.5 C 515.925,405.411 514.925,407.078 513.5,408.5C 512.913,406.315 513.913,404.648 516.5,403.5 Z"/></g>
<g><path style="opacity:1" fill="#6c6c6c" d="M 543.5,405.5 C 542.89,406.391 542.557,407.391 542.5,408.5C 541.115,407.053 541.448,406.053 543.5,405.5 Z"/></g>
<g><path style="opacity:1" fill="#6e6e6e" d="M 582.5,407.5 C 582.389,408.117 582.056,408.617 581.5,409C 577.642,409.81 573.976,409.643 570.5,408.5C 574.566,408.693 578.566,408.36 582.5,407.5 Z"/></g>
<g><path style="opacity:1" fill="#5e5e5e" d="M 367.5,411.5 C 366.421,413.543 364.754,414.876 362.5,415.5C 363.539,413.469 365.205,412.136 367.5,411.5 Z"/></g>
<g><path style="opacity:1" fill="#868686" d="M 337.5,416.5 C 339.898,416.259 341.898,416.926 343.5,418.5C 341.102,418.741 339.102,418.074 337.5,416.5 Z"/></g>
<g><path style="opacity:1" fill="#555555" d="M 503.5,415.5 C 501.383,417.655 498.716,418.655 495.5,418.5C 497.936,417.129 500.603,416.129 503.5,415.5 Z"/></g>
<g><path style="opacity:1" fill="#606060" d="M 479.5,416.5 C 484.678,418.085 490.012,418.752 495.5,418.5C 492.024,419.643 488.358,419.81 484.5,419C 482.509,418.626 480.842,417.793 479.5,416.5 Z"/></g>
</svg>
